# xmcd CD database file generated by Grip 3.2.0
# 
# Track frame offsets:
#       150
#       21695
#       39111
#       67301
#       89267
#       114033
#       135103
#       151998
#       162110
#       191116
#       222318
#       244851
#       263376
#       287116
#       304166
# 
# Disc length: 4363 seconds
# 
# Revision: 4
# Processed by: cddbd v1.5.2PL0 Copyright (c) Steve Scherf et al.
# Submitted via: Grip 3.2.0
# 
DISCID=ca11090f
DTITLE=Perry Rhodan - Silber Edition 17 - Die Hundersonnenwelt [CD 2)
DYEAR=2008
DGENRE=Other
TTITLE0=Kapitel 03 - 10
TTITLE1=Kapitel 03 - 11
TTITLE2=Kapitel 03 - 12
TTITLE3=Kapitel 03 - 13
TTITLE4=Kapitel 03 - 14
TTITLE5=Kapitel 03 - 15
TTITLE6=Kapitel 03 - 16
TTITLE7=Kapitel 03 - 17
TTITLE8=Kapitel 04 - 01
TTITLE9=Kapitel 05 - 01
TTITLE10=Kapitel 05 - 02
TTITLE11=Kapitel 05 - 03
TTITLE12=Kapitel 05 - 04
TTITLE13=Kapitel 05 - 05
TTITLE14=Kapitel 05 - 06
EXTD=
EXTT0=
EXTT1=
EXTT2=
EXTT3=
EXTT4=
EXTT5=
EXTT6=
EXTT7=
EXTT8=
EXTT9=
EXTT10=
EXTT11=
EXTT12=
EXTT13=
EXTT14=
PLAYORDER=
